<svg width="548" height="288" viewBox="0 0 548 288" fill="none" xmlns="http://www.w3.org/2000/svg">
<path d="M0.189453 14.0049V0.939941H44.4575C57.5572 0.939941 81.0116 16.5415 94.9452 37.9458C108.879 59.3501 229.556 209.945 229.556 209.945V0.939941H249.605V287.918H241.335L59.6073 62.1994V282.393H39.0021V36.1042C39.0021 36.1042 31.2883 14.0049 18.7097 14.0049H0.189453ZM547.25 151.952C547.25 243.719 450.722 282.393 421.813 282.393H304.645V35.583C304.645 21.3018 293.526 14.0049 286.75 14.0049H269.064V0.939941H414.898C489.709 0.939941 547.25 60.184 547.25 151.952ZM498.083 149.693C498.083 87.5996 481.196 63.6935 455.691 40.5866C430.187 17.4796 388.629 15.3253 346.029 24.1511V260.502C346.029 260.502 389.776 272.525 423.967 259.147C458.158 245.769 498.083 211.786 498.083 149.693Z" fill="#42382D"/>
</svg>
